<svg version="1.0" xmlns="http://www.w3.org/2000/svg"
 width="457.000000pt" height="478.000000pt" viewBox="0 0 457.000000 478.000000"
 preserveAspectRatio="xMidYMid meet">

<rect width="457" height="478" fill="white"/>
<g transform="translate(0.000000,478.000000) scale(0.100000,-0.100000)"
fill="#670000" stroke="none">
<path d="M0 2390 l0 -2390 2285 0 2285 0 0 2390 0 2390 -2285 0 -2285 0 0
-2390z m3284 1744 c12 -4 16 -20 16 -56 0 -39 -7 -59 -32 -96 -32 -47 -133
-150 -227 -231 l-51 -43 90 -95 c74 -77 240 -305 295 -403 19 -35 -15 10 -65
84 -29 43 -67 95 -84 115 -18 20 -55 68 -83 106 -29 39 -78 96 -110 127 l-58
57 -80 -66 c-44 -35 -122 -99 -173 -140 l-94 -75 19 -22 c11 -11 27 -32 37
-46 9 -14 39 -56 67 -95 113 -159 209 -315 195 -315 -3 0 -18 24 -35 53 -16
28 -54 84 -83 123 -29 39 -71 97 -93 129 -22 32 -60 80 -84 107 l-44 48 -91
-63 c-50 -35 -169 -112 -263 -171 -95 -60 -173 -113 -173 -118 0 -5 18 -44 39
-86 41 -79 83 -182 75 -182 -3 0 -19 30 -36 68 -42 94 -70 149 -89 173 -15 21
-17 20 -151 -63 -74 -45 -178 -108 -231 -138 -59 -34 -96 -61 -97 -71 0 -27
40 -150 68 -204 21 -42 48 -114 86 -230 14 -42 -47 82 -64 130 -10 27 -34 85
-54 127 -20 43 -39 98 -43 123 -3 25 -9 47 -12 50 -4 2 -74 -33 -157 -78 -83
-45 -179 -95 -212 -111 -34 -16 -62 -35 -62 -41 0 -37 96 -323 131 -390 45
-88 61 -125 53 -125 -16 0 -139 282 -165 382 -17 62 -34 116 -38 120 -4 5 -29
-1 -56 -12 -28 -11 -103 -36 -169 -56 l-118 -37 6 -76 c9 -109 19 -170 54
-306 17 -66 29 -121 27 -123 -13 -14 -93 316 -102 423 -3 41 -7 75 -8 75 -1 0
-22 -7 -45 -15 -25 -9 -78 -15 -129 -15 -83 0 -89 1 -115 28 -53 56 -43 127
35 248 45 69 60 83 33 32 -54 -104 -71 -228 -35 -248 32 -17 116 -11 191 12
l70 22 0 87 0 86 51 7 c66 9 75 0 15 -16 l-46 -12 0 -68 c0 -37 2 -68 5 -68
11 0 193 73 253 101 44 20 62 34 59 44 -3 7 -9 29 -12 48 -6 29 -4 36 12 40
10 3 65 20 121 37 57 17 106 29 109 27 5 -6 -56 -29 -155 -58 l-74 -21 7 -37
c4 -20 8 -37 10 -39 6 -6 372 193 540 294 94 56 195 114 225 129 30 15 82 47
115 70 33 24 155 103 270 177 116 74 280 184 365 246 85 61 181 130 213 153
32 23 63 49 70 59 7 9 19 19 27 22 24 10 275 233 299 266 29 41 27 70 -5 78
-36 9 -196 -10 -259 -31 -20 -6 -20 -6 0 6 48 30 152 58 222 58 39 1 78 -2 87
-5z m-1434 -204 c-213 -66 -376 -160 -570 -326 -42 -37 -37 -29 25 34 128 130
297 224 565 313 30 10 66 18 80 18 14 0 -31 -17 -100 -39z m318 -29 l-23 -43
42 -36 c87 -75 316 -303 258 -257 -33 27 -78 67 -100 89 -23 23 -80 77 -127
121 l-86 80 14 34 c8 19 19 41 26 48 20 25 18 7 -4 -36z m599 -28 c56 -39 64
-46 36 -36 -19 7 -103 64 -103 70 0 9 18 0 67 -34z m-822 -244 c-22 -22 -54
-49 -72 -60 l-32 -20 31 -67 c16 -37 50 -109 74 -161 25 -52 42 -96 40 -99 -6
-6 -156 302 -156 320 0 7 15 23 33 35 18 13 48 38 67 58 19 19 38 35 44 35 6
0 -8 -18 -29 -41z m-675 -109 c12 -8 11 -10 -7 -10 -12 0 -25 5 -28 10 -8 13
15 13 35 0z m290 -65 c-19 -7 -46 -14 -59 -14 l-24 -1 7 -122 c3 -68 8 -141
11 -163 l4 -40 -8 35 c-18 70 -31 169 -31 232 l0 65 53 10 c73 14 88 14 47 -2z
m2288 3 c43 -43 -16 -144 -192 -324 -80 -82 -146 -151 -146 -152 0 -2 22 -63
49 -136 57 -153 88 -266 96 -351 l5 -60 -14 61 c-8 33 -21 82 -30 108 -9 26
-21 68 -26 94 -12 56 -90 272 -98 272 -3 0 -37 -26 -76 -58 -39 -33 -109 -86
-156 -120 -47 -34 -103 -77 -125 -96 -36 -31 -39 -37 -27 -56 29 -47 132 -423
120 -436 -3 -2 -10 22 -17 53 -15 68 -120 393 -127 393 -3 0 -28 -17 -57 -38
-29 -21 -144 -101 -257 -177 -113 -76 -226 -154 -252 -172 l-47 -34 40 -79
c48 -96 100 -222 94 -228 -3 -3 -19 26 -36 64 -91 201 -109 235 -121 228 -7
-4 -49 -33 -93 -65 -44 -31 -150 -98 -235 -149 -85 -51 -156 -93 -158 -95 -3
-3 23 -39 151 -214 77 -105 62 -94 -41 30 -30 35 -67 86 -83 112 -16 26 -35
50 -42 53 -7 2 -76 -31 -153 -74 -76 -44 -163 -91 -191 -106 -29 -14 -53 -28
-53 -31 0 -6 160 -208 218 -275 47 -55 47 -55 -28 14 -43 40 -102 109 -138
163 l-62 93 -158 -78 c-86 -43 -183 -89 -214 -101 -32 -13 -58 -26 -58 -30 0
-9 166 -170 230 -222 30 -25 97 -74 148 -108 50 -35 92 -65 92 -68 0 -2 -27
11 -61 29 -80 44 -168 114 -315 252 l-120 114 -135 -55 c-98 -41 -163 -61
-243 -74 -171 -30 -226 -9 -226 84 0 53 39 146 86 202 l25 30 -10 -27 c-6 -15
-22 -50 -36 -78 -31 -62 -44 -143 -25 -165 18 -22 89 -19 200 9 92 23 304 109
316 128 3 5 0 15 -6 23 -19 23 -7 38 51 68 40 21 47 23 27 7 -65 -51 -68 -55
-58 -70 8 -13 41 1 205 85 107 55 202 105 210 111 14 10 13 15 -5 47 l-21 35
43 24 c24 14 54 31 68 37 25 12 25 12 4 -6 -11 -10 -36 -30 -54 -44 -32 -24
-34 -28 -22 -53 l12 -28 115 62 c64 34 156 87 204 118 87 57 89 58 75 82 -21
39 -16 48 10 16 l23 -30 104 64 c77 46 352 228 387 255 2 2 -4 20 -13 40 -8
21 -14 39 -13 40 11 10 188 114 188 110 0 -2 -38 -31 -84 -65 -81 -58 -84 -63
-74 -86 7 -14 17 -23 23 -20 23 9 286 178 425 275 80 55 204 141 275 190 72
49 171 125 220 168 50 43 133 109 185 148 133 97 280 254 280 298 0 24 -54 40
-117 34 l-58 -6 40 14 c50 17 147 19 163 3z m-251 -34 c-3 -3 -12 -4 -19 -1
-8 3 -5 6 6 6 11 1 17 -2 13 -5z m-52 -14 c-11 -5 -27 -9 -35 -9 -9 0 -8 4 5
9 11 5 27 9 35 9 9 0 8 -4 -5 -9z m-2449 -103 c-8 -30 -20 -108 -26 -173 -6
-64 -16 -126 -21 -138 -10 -24 -8 10 10 164 10 89 40 215 48 206 2 -2 -3 -28
-11 -59z m-152 -154 c-11 -42 -116 -282 -109 -248 6 30 62 181 90 243 18 39
28 42 19 5z m563 -65 c-3 -8 -6 -5 -6 6 -1 11 2 17 5 13 3 -3 4 -12 1 -19z
m1718 -188 c-3 -5 -16 -15 -28 -21 -19 -9 -19 -8 3 10 28 23 34 26 25 11z
m-2158 -77 c-2 -16 -4 -5 -4 22 0 28 2 40 4 28 2 -13 2 -35 0 -50z m-250 -15
c-3 -8 -6 -5 -6 6 -1 11 2 17 5 13 3 -3 4 -12 1 -19z m1434 -125 c16 -38 39
-85 50 -105 11 -21 18 -38 16 -38 -3 0 -15 17 -29 38 -24 37 -81 172 -72 172
3 0 19 -30 35 -67z m1752 -90 c-7 -2 -21 -2 -30 0 -10 3 -4 5 12 5 17 0 24 -2
18 -5z m87 -21 c33 -17 35 -20 33 -67 -2 -82 -32 -129 -183 -285 -123 -128
-137 -146 -123 -157 14 -11 12 -13 -19 -13 -20 0 -39 -4 -43 -10 -10 -16 -156
-132 -207 -163 -26 -16 -48 -33 -48 -38 0 -4 -17 -18 -37 -30 -21 -13 -62 -43
-90 -68 l-53 -45 0 -148 c0 -193 -18 -199 -22 -8 l-3 140 -67 -42 c-37 -24
-168 -111 -290 -194 -123 -83 -258 -172 -301 -198 -67 -42 -76 -51 -65 -64 11
-13 11 -14 -7 -3 -18 11 -38 3 -172 -76 l-151 -88 90 -47 c50 -25 95 -52 102
-58 6 -7 -39 13 -100 43 l-110 55 -100 -53 c-61 -33 -93 -56 -84 -59 42 -15
173 -36 230 -37 l65 -1 -45 -10 c-45 -10 -108 -3 -240 26 l-55 12 -180 -87
c-201 -97 -459 -202 -520 -212 -50 -8 -99 4 -103 26 -2 9 12 38 30 64 36 53
148 162 129 126 -6 -12 -15 -25 -21 -28 -23 -14 -101 -129 -98 -145 3 -16 9
-15 83 12 116 43 417 191 508 250 43 28 85 63 93 77 12 21 14 22 9 4 -5 -19 7
-14 99 35 l105 57 -52 46 -52 46 28 42 c15 22 30 41 32 41 3 0 -7 -18 -21 -40
-15 -22 -24 -43 -21 -46 3 -3 29 -21 58 -40 l52 -33 56 31 c87 50 251 159 251
167 0 4 -12 18 -26 32 -14 13 -53 55 -87 92 l-60 68 56 55 57 54 -50 -52 -49
-52 52 -56 c29 -30 68 -75 88 -99 l35 -44 130 83 c71 45 144 92 162 102 17 11
32 24 32 29 0 5 -16 42 -36 82 -30 58 -74 168 -74 184 0 1 4 3 8 3 5 0 16 -25
26 -56 10 -30 33 -81 52 -112 19 -31 34 -62 34 -69 0 -36 37 -17 338 181 l132
87 1 57 1 57 12 -48 11 -48 105 72 c58 39 151 107 207 150 55 43 115 87 133
97 17 11 99 86 183 168 117 114 155 158 163 187 11 37 10 39 -25 73 -40 37
-34 42 19 16z m-411 -271 c1 -73 -6 -42 -12 49 -4 62 -3 73 3 40 5 -25 9 -65
9 -89z m-249 -338 c-83 -5 -148 -23 -153 -41 -4 -13 -5 -12 -6 4 -1 28 44 42
134 41 40 0 50 -2 25 -4z m-444 -79 c-34 -19 -138 -55 -143 -51 -4 5 148 66
162 66 6 0 -3 -7 -19 -15z m691 -56 c-6 -79 -43 -247 -58 -263 -13 -13 -11 -1
11 88 11 43 25 116 32 162 6 47 14 85 16 85 3 0 2 -33 -1 -72z m-2726 -110
c10 -21 17 -38 15 -38 -7 0 -56 85 -56 96 0 11 15 -10 41 -58z m2649 -219
c-17 -41 -22 -31 -8 17 6 21 13 33 15 26 3 -7 -1 -26 -7 -43z m-1710 -214 c19
-19 32 -35 29 -35 -3 0 -20 16 -39 35 -19 19 -32 35 -29 35 3 0 20 -16 39 -35z
m1375 25 c-202 -15 -375 -85 -505 -205 -19 -17 -51 -43 -70 -56 l-35 -24 35
44 c120 149 357 251 575 249 l100 -1 -100 -7z m-1134 -18 c-5 -10 -18 -25 -27
-33 -11 -9 -9 -2 6 19 26 35 36 42 21 14z m489 -331 c-5 -11 -15 -23 -22 -27
-7 -5 -8 -2 -3 7 21 37 44 55 25 20z"/>
</g>
</svg>
